<svg xmlns="http://www.w3.org/2000/svg" xmlns:xlink="http://www.w3.org/1999/xlink" viewBox="0 0 64 64"><defs><linearGradient id="gradient_ice" x1="1.318" y1="66.067" x2="58.265" y2="12.171" gradientUnits="userSpaceOnUse"><stop offset="0" stop-color="#48264d" id="id_121"></stop><stop offset="1" stop-color="#00ff95" id="id_122"></stop></linearGradient><linearGradient id="gradient_ice-2" x1="-19.897" y1="43.652" x2="37.051" y2="-10.244" xlink:href="#gradient_ice"></linearGradient><linearGradient id="gradient_ice-3" x1="-22.776" y1="40.61" x2="34.172" y2="-13.287" gradientTransform="translate(4.947 -5.909) rotate(29.998)" xlink:href="#gradient_ice"></linearGradient><linearGradient id="gradient_ice-4" x1="-22.609" y1="40.786" x2="34.338" y2="-13.111" gradientTransform="translate(14.465 -0.052) rotate(60.002)" xlink:href="#gradient_ice"></linearGradient><linearGradient id="gradient_ice-5" x1="-19.442" y1="44.133" x2="37.505" y2="-9.764" xlink:href="#gradient_ice"></linearGradient><linearGradient id="gradient_ice-6" x1="-14.122" y1="49.753" x2="42.825" y2="-4.143" gradientTransform="translate(15.722 0.313) rotate(29.995)" xlink:href="#gradient_ice"></linearGradient><linearGradient id="gradient_ice-7" x1="-8.076" y1="56.142" x2="48.872" y2="2.246" gradientTransform="translate(37.689 6.172) rotate(60.005)" xlink:href="#gradient_ice"></linearGradient><linearGradient id="gradient_ice-8" x1="-8.697" y1="55.486" x2="48.251" y2="1.589" gradientTransform="translate(11.167 -16.684) rotate(29.995)" xlink:href="#gradient_ice"></linearGradient><linearGradient id="gradient_ice-9" x1="-14.743" y1="49.097" x2="42.204" y2="-4.799" gradientTransform="translate(20.689 -23.276) rotate(60.005)" xlink:href="#gradient_ice"></linearGradient></defs><g id="Solar-sun"><path d="M60.763,20.354A1,1,0,0,0,60,20H33.949a12,12,0,1,0-14.9,12.63l-2.034,12.2A.919.919,0,0,0,17,45v4a1,1,0,0,0,1,1H33.719l-1.5,6H29a1,1,0,0,0-.895.553L26.382,60H24v2H50V60H47.618L45.9,56.553A1,1,0,0,0,45,56H41.781l-1.5-6H56a1,1,0,0,0,1-1V45.083l3.986-23.918A1,1,0,0,0,60.763,20.354ZM58.153,26H51.18l.667-4h6.972ZM48.18,44l.667-4H55.82l-.667,4ZM21.847,28H28.82l-.667,4H21.18Zm.333-2,.667-4H29.82l-.667,4Zm19.667-4H49.82l-.667,4H41.18Zm6.973,6-.667,4H40.18l.667-4Zm-8.973,6H47.82l-.667,4H39.18Zm-2.694,4H29.18l.667-4H37.82Zm1-6H30.18l.667-4H38.82ZM20.847,34H27.82l-.667,4H20.18Zm5.973,6-.667,4H19.18l.667-4Zm2.027,0H36.82l-.667,4H28.18Zm10,0H46.82l-.667,4H38.18ZM49.18,38l.667-4h6.972l-.666,4Zm1-6,.667-4h6.972l-.666,4ZM39.82,22l-.667,4H31.18l.667-4ZM12,21a10,10,0,0,1,19.949-1H22a1,1,0,0,0-.986.835L19.378,30.65A9.95,9.95,0,0,1,12,21ZM45.382,60H28.618l1-2H44.382Zm-5.663-4H34.281l1.5-6h2.438ZM19,48V46H55v2Z" style="fill:url(#gradient_ice)" id="id_112"></path><rect x="21" y="2" width="2" height="4" style="fill:url(#gradient_ice-2)" id="id_113"></rect><rect x="12.5" y="4.277" width="2" height="4" transform="translate(-1.33 7.591) rotate(-29.998)" style="fill:url(#gradient_ice-3)" id="id_114"></rect><rect x="6.277" y="10.5" width="2" height="4" transform="translate(-7.187 12.553) rotate(-60.002)" style="fill:url(#gradient_ice-4)" id="id_115"></rect><rect x="3" y="20" width="4" height="2" style="fill:url(#gradient_ice-5)" id="id_116"></rect><rect x="5.277" y="28.5" width="4" height="2" transform="translate(-13.773 7.589) rotate(-29.995)" style="fill:url(#gradient_ice-6)" id="id_117"></rect><rect x="11.5" y="34.722" width="4" height="2" transform="translate(-24.187 29.556) rotate(-60.005)" style="fill:url(#gradient_ice-7)" id="id_118"></rect><rect x="34.722" y="11.5" width="4" height="2" transform="translate(-1.331 20.032) rotate(-29.995)" style="fill:url(#gradient_ice-8)" id="id_119"></rect><rect x="28.5" y="5.277" width="4" height="2" transform="translate(9.816 29.554) rotate(-60.005)" style="fill:url(#gradient_ice-9)" id="id_120"></rect></g></svg>